<svg xmlns="http://www.w3.org/2000/svg" version="1.1" xmlns:xlink="http://www.w3.org/1999/xlink" xmlns:svgjs="http://svgjs.dev/svgjs" width="2000" height="2361" viewBox="0 0 2000 2361"><g transform="matrix(1,0,0,1,-4.42369523106629,-3.806306504297254)"><svg viewBox="0 0 210 248" data-background-color="#ffffff" preserveAspectRatio="xMidYMid meet" height="2361" width="2000" xmlns="http://www.w3.org/2000/svg" xmlns:xlink="http://www.w3.org/1999/xlink"><g id="tight-bounds" transform="matrix(1,0,0,1,0.46448799926196216,0.40002634420793015)"><svg viewBox="0 0 209.07072685843204 247.2" height="247.2" width="209.07072685843204"><g><svg viewBox="0 0 209.07072685843204 247.2" height="247.2" width="209.07072685843204"><g><svg viewBox="0 0 209.07072685843204 247.2" height="247.2" width="209.07072685843204"><g id="textblocktransform"><svg viewBox="0 0 209.07072685843204 247.2" height="247.2" width="209.07072685843204" id="textblock"><g><svg viewBox="0 0 209.07072685843204 247.2" height="247.2" width="209.07072685843204"><path d="M208.581 53.02C207.598 27.36 204.797 20.227 204.797 20.227 196.197-6.202 185.464-0.506 175.822 3.292 158.798 3.446 141.843 9.091 124.859 12.119 89.21 12.581 53.256 4.986 17.783 23.717 14.451 29.464-3.457 24.846 0.593 56.304 1.654 69.39 5.527 83.913 5.409 95.922 5.94 98.026 6.677 93.202 6.991 96.23 8.092 104.39 9.891 100.541 11.365 105.365 9.311 118.246 10.785 128.971 12.191 140.21 9.714 143.135 6.539 141.749 5.114 151.449 4.967 158.479 4.17 157.145 3.296 156.837 2.657 156.632 1.369 157.402 1.585 159.608 2.323 167.152-0.842 171.514 1.143 178.904-0.223 186.91 2.087 193.838 1.772 202.511 1.733 204.255 1.949 205.744 2.293 206.154 3.817 208.361 1.595 212.672 1.831 217.342 17.459 249.262 34.414 227.195 50.425 241.872 54.583 231.608 51.457 245.516 53.118 243.36 54.416 240.846 55.359 251.263 56.824 245.362 57.05 243.668 56.706 239.665 57.512 240.435 57.934 240.846 58.308 240.743 58.367 238.382 58.455 234.841 57.679 237.048 57.472 235.201 59.703 225.861 59.153 248.081 61.247 247.158 61.148 244.438 60.539 240.538 61.787 241.051 63.026 237.151 63.065 233.918 64.166 242.693 64.205 244.592 64.402 245.926 64.716 246.85 68.156 237.305 71.577 250.237 75.184 245.926 77.395 241.205 79.518 248.492 81.759 246.696 82.546 245.259 83.342 242.693 84.099 247.004 93.367 247.928 103.245 244.079 112.032 247.158 135.513 241.41 160.607 249.518 185.365 241.923 191.204 238.998 197.268 234.841 202.959 231.506 202.959 231.506 207.569 222.371 207.569 181.316S208.552 145.393 208.699 112.703C208.847 80.013 209.535 78.679 208.552 53.02Z" opacity="1" fill="#8c52ff" data-fill-palette-color="tertiary"></path><g transform="matrix(1,0,0,1,55.76832,26.230666666666668)"><svg width="97.53408685843203" viewBox="3.15 -29.55 14.799999999999999 29.55" height="194.73866666666666" data-palette-color="#ffffff"><path d="M6.4 0L3.15 0 3.15-29.55 12.3-29.55Q14.85-29.55 16.4-28.38 17.95-27.2 17.95-24.65L17.95-24.65 17.95-19.2Q17.95-17.5 17.45-16.03 16.95-14.55 15.6-13.65 14.25-12.75 11.7-12.75L11.7-12.75 6.4-12.75 6.4 0ZM6.4-27.7L6.4-14.6 10.75-14.6Q12.75-14.6 13.78-15.83 14.8-17.05 14.8-19.6L14.8-19.6 14.8-23.45Q14.8-25.65 13.85-26.68 12.9-27.7 11.55-27.7L11.55-27.7 6.4-27.7Z" opacity="1" transform="matrix(1,0,0,1,0,0)" fill="#ffffff" class="wordmark-text-0" data-fill-palette-color="quaternary" id="text-0"></path></svg></g></svg></g></svg></g></svg></g><g></g></svg></g><defs></defs></svg><rect width="209.07072685843204" height="247.2" fill="none" stroke="none" visibility="hidden"></rect></g></svg></g></svg>